<?xml version="1.0" encoding="utf-8"?>
<!-- Generator: Adobe Illustrator 27.8.1, SVG Export Plug-In . SVG Version: 6.00 Build 0)  -->
<svg version="1.1" xmlns="http://www.w3.org/2000/svg" xmlns:xlink="http://www.w3.org/1999/xlink" x="0px" y="0px"
	 viewBox="0 0 4000 4000" style="enable-background:new 0 0 4000 4000;" xml:space="preserve">
<style type="text/css">
	.st0{fill:#EEEEEE;}
	.st1{fill:#FFFFFF;}
	.st2{fill:#E60C7D;}
	.st3{fill:#3D3A8F;}
	.st4{fill:#891A64;}
	.st5{fill:#334A9A;}
	.st6{fill:#090055;}
	.st7{fill:#000729;}
</style>
<g id="_x33_14">
	<g>
		<g>
			<path class="st0" d="M3071.67,3460.21c0-24.97-479.81-45.21-1071.69-45.21c-591.83,0-1071.64,20.24-1071.64,45.21
				c0,24.98,479.81,45.22,1071.64,45.22C2591.86,3505.43,3071.67,3485.19,3071.67,3460.21z"/>
		</g>
		<g>
			<g>
				<circle class="st1" cx="2000" cy="2000" r="1214.94"/>
			</g>
		</g>
	</g>
	<g>
		<path class="st2" d="M2355.29,1579.67c38.68,0,70.1,32.59,70.1,73.1c0,40.27-31.42,72.86-70.1,72.86
			c-38.69,0-70.11-32.59-70.11-72.86C2285.19,1612.26,2316.61,1579.67,2355.29,1579.67z"/>
		<polygon class="st3" points="2492.5,1816.54 2583.12,2035.94 2531.1,2135.2 2453.87,2125.54 2376.59,2125.54 2329.19,2054.43 
			2348.82,2030.13 2347.85,2028.7 		"/>
		<polygon class="st4" points="2796.68,2251.07 3110.5,2608.37 1839.3,2608.37 2077.08,2441.16 2077.16,2439.43 2077.25,2439.38 
			2086.93,2313.85 2159.32,2202.8 2209.4,2173.82 2251.12,2151.04 2276.56,2119.56 2329.19,2054.43 2376.59,2125.54 
			2453.87,2125.54 2531.1,2135.2 2583.12,2035.94 2584.22,2038.63 2714.61,2236.6 		"/>
		<polygon class="st5" points="2122.84,1687.14 2347.85,2028.7 2347.63,2028.99 2328.32,2053.13 2275.86,2118.75 2122.84,1953.56 
			2049.43,1964.72 1920.1,1796.5 1873.36,1808.67 1834.11,1742.48 1646.59,1970.09 1564.47,1935.69 1369.91,2230.9 1231.56,2191.07 
			1103.89,2402.5 1006.63,2445.41 889.53,2609.49 889.48,2609.49 1006.63,2378.7 1103.89,2318.49 1231.56,2021.16 1369.91,2077.22 
			1564.47,1662.19 1646.59,1710.35 1834.11,1390.44 1873.36,1483.54 1920.1,1466.4 2049.43,1702.92 		"/>
		<polygon class="st4" points="2275.86,2118.75 2251.08,2149.68 2209.4,2173.82 2160.12,2200.73 2085.92,2312.97 2077.16,2439.43 
			1835.83,2608.37 1839.3,2608.37 1837.58,2609.58 889.53,2609.49 1006.63,2445.41 1103.89,2402.5 1231.56,2191.07 1369.91,2230.9 
			1564.47,1935.69 1646.59,1970.09 1834.11,1742.48 1873.36,1808.67 1920.1,1796.5 2049.43,1964.72 2122.84,1953.56 		"/>
		<path class="st6" d="M1837.58,2624.06L1837.58,2624.06l-948.06-0.09c-5.01,0-9.72-2.62-12.37-6.91c-2.6-4.29-2.86-9.64-0.57-14.13
			l117.15-230.8c1.19-2.37,3.04-4.36,5.28-5.77l93.34-57.8l125.86-293.13c3.12-7.24,11.44-10.65,18.75-7.7l125.64,50.89
			l188.79-402.6c1.72-3.67,4.93-6.47,8.8-7.68s8.1-0.73,11.62,1.34l69.58,40.84l180.21-307.41c2.77-4.74,8.01-7.53,13.42-7.13
			c5.5,0.38,10.3,3.78,12.41,8.83l33.89,80.38l33.8-12.39c6.73-2.49,14.26,0.35,17.69,6.65l124.15,227.06l62.84-13.51
			c5.85-1.3,11.84,1.19,15.14,6.18l225.89,342.93c3.52,5.26,3.21,12.21-0.75,17.14l-72.26,89.42c-5.02,6.21-14.13,7.17-20.38,2.16
			c-6.21-5.04-7.17-14.15-2.16-20.38l65.57-81.17l-214.67-325.9l-63.72,13.71c-6.25,1.37-12.68-1.58-15.71-7.22l-123.4-225.58
			l-35.03,12.85c-7.26,2.66-15.31-0.84-18.31-7.97L1832,1422.7l-172.91,294.99c-1.98,3.32-5.15,5.72-8.85,6.69
			c-3.74,0.97-7.7,0.44-11-1.52l-68.39-40.14l-187.82,400.65c-3.26,6.97-11.44,10.16-18.57,7.28l-125.2-50.74l-122.08,284.29
			c-1.15,2.72-3.17,5.04-5.68,6.6l-93.78,58.07L913.12,2595l924.47,0.11c8.01,0,14.48,6.47,14.48,14.48
			C1852.06,2617.59,1845.6,2624.06,1837.58,2624.06z"/>
		<path class="st6" d="M3110.5,2622.85H1835.83c-6.29,0-11.88-4.1-13.77-10.12c-1.94-6.03,0.31-12.61,5.5-16.22l235.8-165.1
			l9.11-118.69c0.22-2.42,1.02-4.75,2.33-6.8l72.44-111.05c1.24-1.89,2.91-3.48,4.89-4.62l89.38-51.73l94.49-118.16l144.57-211.99
			c2.99-4.4,8.23-6.78,13.46-6.25c5.28,0.55,9.86,3.96,11.88,8.87l91.19,220.83l126.17,191.59l75.96,13.4
			c3.26,0.57,6.21,2.22,8.36,4.71l313.82,357.3c3.78,4.27,4.66,10.34,2.33,15.53C3121.38,2619.53,3116.18,2622.85,3110.5,2622.85z
			 M1881.81,2593.89h1196.7l-289.35-329.44l-77.1-13.6c-3.92-0.68-7.35-2.97-9.55-6.29l-130.4-197.94c-0.48-0.8-0.92-1.61-1.27-2.47
			l-1.1-2.71l-80.41-194.58l-129.51,189.98c-0.22,0.31-0.66,0.9-0.88,1.19l-96.55,120.71c-1.1,1.39-2.51,2.57-4.05,3.48
			l-88.76,51.38l-68.52,105.04l-9.38,121.86c-0.35,4.58-2.86,8.7-6.69,11.11L1881.81,2593.89z"/>
		<path class="st6" d="M2419.32,2624.06h-269.99c-8.01,0-14.48-6.47-14.48-14.48c0-8.01,6.46-14.48,14.48-14.48h269.99
			c8.01,0,14.52,6.47,14.52,14.48C2433.84,2617.59,2427.33,2624.06,2419.32,2624.06z"/>
		<path class="st6" d="M1837.58,2624.06h-948.1c-5.01,0-9.68-2.6-12.32-6.87c-2.64-4.27-2.86-9.61-0.62-14.1
			c0.35-0.66,0.79-1.41,1.23-2.03l117.06-164.06c1.54-2.11,3.56-3.78,5.94-4.84l93.08-41.08l125.29-207.5
			c3.39-5.61,10.08-8.25,16.41-6.45l128.11,36.9l188.75-286.31c3.83-5.83,11.26-8.08,17.69-5.4l72.13,30.21l180.69-219.29
			c2.99-3.63,7.52-5.59,12.28-5.24c4.71,0.37,8.93,2.99,11.35,7.07l33.71,56.81l36.17-9.42c5.63-1.47,11.58,0.57,15.14,5.2
			l124.15,161.44l64.91-9.88c4.76-0.75,9.55,0.97,12.81,4.49l153.98,166.24c4.66,5.28,4.84,13.2,0.4,18.71l-25.43,31.48
			c-1.19,1.48-2.64,2.69-4.32,3.61l-87.88,47.94l-70.1,106.08l-8.58,124.21c-0.22,4.42-2.51,8.47-6.12,11.03l-239.53,168.44
			C1843.44,2623.15,1840.53,2624.06,1837.58,2624.06z M917.6,2595.1h915.4l230.07-161.79l8.36-121.33c0.18-2.49,1.01-4.91,2.38-7
			l74.19-112.24c1.32-1.98,3.08-3.61,5.15-4.73l88.5-48.3l15.8-19.54l-140.03-151.14l-65.79,10.01c-5.24,0.81-10.48-1.32-13.69-5.5
			l-123.49-160.61l-37.46,9.75c-6.25,1.63-12.8-1.08-16.1-6.62l-28.74-48.45l-174.4,211.67c-4.09,4.93-10.91,6.6-16.81,4.16
			l-70.98-29.75l-187.96,285.19c-3.48,5.28-10.03,7.68-16.11,5.94l-127.71-36.77l-121.9,201.93c-1.54,2.55-3.83,4.56-6.56,5.76
			l-93.6,41.33L917.6,2595.1z"/>
		<path class="st6" d="M2531.15,2149.68c-0.62,0-1.24-0.02-1.81-0.11l-76.35-9.55h-76.4c-4.8,0-9.33-2.4-12.02-6.45l-48.32-72.42
			c-4.4-6.67-2.64-15.64,4.05-20.09c6.65-4.44,15.62-2.64,20.07,4.03l44.01,65.97h69.49c0.62,0,1.19,0.04,1.81,0.11l67.29,8.41
			l48.45-92.48c3.7-7.08,12.46-9.84,19.54-6.12c7.08,3.7,9.81,12.46,6.12,19.54l-53.12,101.4
			C2541.44,2146.73,2536.47,2149.68,2531.15,2149.68z"/>
		<path class="st7" d="M2355.29,1740.1c-46.65,0-84.63-39.19-84.63-87.33c0-48.3,37.98-87.6,84.63-87.6
			c46.6,0,84.58,39.3,84.58,87.6C2439.87,1700.91,2401.89,1740.1,2355.29,1740.1z M2355.29,1594.15
			c-30.67,0-55.63,26.29-55.63,58.62c0,32.17,24.96,58.37,55.63,58.37c30.63,0,55.58-26.2,55.58-58.37
			C2410.87,1620.44,2385.92,1594.15,2355.29,1594.15z"/>
		<path class="st7" d="M2409.16,1611.09c-3.61,0-7.22-1.34-10.03-4.02c-5.77-5.55-5.94-14.7-0.4-20.49l15.75-16.46
			c5.55-5.79,14.7-5.96,20.47-0.44c5.81,5.55,5.98,14.72,0.44,20.49l-15.76,16.46C2416.77,1609.6,2412.98,1611.09,2409.16,1611.09z"
			/>
		<path class="st7" d="M2453.87,1667.21h-22.45c-8.01,0-14.48-6.49-14.48-14.48c0-8.01,6.47-14.5,14.48-14.5h22.45
			c8.01,0,14.48,6.49,14.48,14.5C2468.34,1660.71,2461.88,1667.21,2453.87,1667.21z"/>
		<path class="st7" d="M2424.96,1739.66c-3.83,0-7.61-1.5-10.48-4.47l-15.8-16.5c-5.5-5.79-5.33-14.96,0.48-20.48
			c5.77-5.52,14.92-5.33,20.46,0.46l15.8,16.5c5.5,5.79,5.32,14.96-0.48,20.49C2432.12,1738.34,2428.56,1739.66,2424.96,1739.66z"/>
		<path class="st7" d="M2355.29,1769.74c-8.01,0-14.53-6.47-14.53-14.48v-23.33c0-7.99,6.51-14.48,14.53-14.48
			c7.96,0,14.47,6.49,14.47,14.48v23.33C2369.77,1763.27,2363.26,1769.74,2355.29,1769.74z"/>
		<path class="st7" d="M2285.54,1739.66c-3.61,0-7.22-1.34-10.03-4.03c-5.77-5.55-5.94-14.72-0.4-20.49l15.89-16.52
			c5.54-5.76,14.7-5.94,20.46-0.39c5.76,5.54,5.94,14.72,0.4,20.48l-15.84,16.52C2293.15,1738.19,2289.37,1739.66,2285.54,1739.66z"
			/>
		<path class="st7" d="M2279.16,1667.21h-22.44c-7.96,0-14.48-6.49-14.48-14.48c0-8.01,6.51-14.5,14.48-14.5h22.44
			c8.01,0,14.53,6.49,14.53,14.5C2293.68,1660.71,2287.16,1667.21,2279.16,1667.21z"/>
		<path class="st7" d="M2301.43,1611.09c-3.78,0-7.57-1.47-10.43-4.42l-15.89-16.46c-5.55-5.77-5.37-14.94,0.4-20.49
			c5.72-5.55,14.92-5.39,20.46,0.35l15.89,16.48c5.54,5.75,5.41,14.92-0.35,20.49C2308.69,1609.75,2305.03,1611.09,2301.43,1611.09z
			"/>
		<path class="st7" d="M2355.29,1587.86c-8.01,0-14.53-6.47-14.53-14.48v-23.33c0-7.98,6.51-14.48,14.53-14.48
			c7.96,0,14.47,6.49,14.47,14.48v23.33C2369.77,1581.39,2363.26,1587.86,2355.29,1587.86z"/>
	</g>
</g>
<g id="Layer_1">
</g>
</svg>
